<?xml version="1.0" encoding="utf-8"?>
<!-- Svg Vector Icons : http://www.onlinewebfonts.com/icon -->
<!DOCTYPE svg PUBLIC "-//W3C//DTD SVG 1.1//EN" "http://www.w3.org/Graphics/SVG/1.1/DTD/svg11.dtd">
<svg version="1.1" xmlns="http://www.w3.org/2000/svg" xmlns:xlink="http://www.w3.org/1999/xlink" x="0px" y="0px" viewBox="0 0 1000 1000" enable-background="new 0 0 1000 1000" xml:space="preserve">
<metadata> Svg Vector Icons : http://www.onlinewebfonts.com/icon </metadata>
<g><path d="M158.6,333V175h67.1c16.9,0,29.1,1.4,36.8,4.3c7.7,2.8,13.8,7.9,18.4,15.1c4.6,7.3,6.9,15.6,6.9,24.9c0,11.9-3.5,21.6-10.4,29.4c-7,7.7-17.4,12.6-31.2,14.6c6.9,4,12.6,8.4,17.1,13.3c4.5,4.8,10.5,13.4,18.2,25.6l19.3,30.8h-38.1l-23.1-34.4c-8.2-12.3-13.8-20-16.8-23.2c-3-3.2-6.2-5.4-9.6-6.6c-3.4-1.2-8.7-1.8-16.1-1.8h-6.5V333L158.6,333L158.6,333z M190.5,241.8h23.6c15.3,0,24.9-0.6,28.7-1.9c3.8-1.3,6.8-3.5,8.9-6.7c2.2-3.2,3.2-7.1,3.2-11.9c0-5.3-1.4-9.6-4.3-12.9c-2.8-3.3-6.8-5.3-12-6.2c-2.6-0.4-10.3-0.5-23.3-0.5h-24.9V241.8z"/><path d="M311.3,255c0-16.1,2.4-29.6,7.2-40.5c3.6-8,8.5-15.3,14.7-21.7c6.2-6.4,13-11.1,20.4-14.2c9.8-4.2,21.2-6.2,34-6.2c23.3,0,41.9,7.2,55.9,21.7c14,14.4,21,34.5,21,60.2c0,25.5-6.9,45.4-20.8,59.8c-13.9,14.4-32.4,21.6-55.6,21.6c-23.5,0-42.2-7.2-56-21.5C318.3,299.9,311.3,280.1,311.3,255z M344.2,253.9c0,17.9,4.1,31.4,12.4,40.7c8.3,9.2,18.7,13.8,31.5,13.8c12.7,0,23.1-4.6,31.3-13.7c8.2-9.2,12.2-22.9,12.2-41.2c0-18.1-4-31.6-11.9-40.5c-7.9-8.9-18.5-13.4-31.6-13.4c-13.1,0-23.7,4.5-31.8,13.5C348.2,222.1,344.2,235.7,344.2,253.9z"/><path d="M488.5,333V175h31.9V333L488.5,333L488.5,333z"/><path d="M10,141.2v717.6C10,931.3,68.7,990,141.2,990h717.6c72.5,0,131.2-58.7,131.2-131.2V141.2C990,68.7,931.3,10,858.8,10H141.2C68.7,10,10,68.7,10,141.2z M63,830.1V169.9C63,105.3,105.3,63,169.9,63h660.1C894.7,63,937,105.3,937,169.9v662.7c0,64.6-39.8,104.4-104.4,104.4H169.9C105.3,937,63,894.7,63,830.1L63,830.1z"/><path d="M841.4,175.3v385.8c0,263.5-177.6,263.5-230.2,263.5c-113.2,0-452.6,0-452.6,0v-50.2h446.7c181.8,0,185.6-140.2,186.3-213.3c0.9-96.4,0-385.8,0-385.8H841.4L841.4,175.3z"/></g>
</svg>