<?xml version="1.0"?>
<svg xmlns="http://www.w3.org/2000/svg" viewBox="0 0 32 32">
    <path style="text-indent:0;text-align:start;line-height:normal;text-transform:none;block-progression:tb;-inkscape-font-specification:Sans" d="M 5 6 C 4.448 6 4 6.448 4 7 C 4 7.552 4.448 8 5 8 L 7.21875 8 L 9.84375 18.5 C 10.06675 19.39 10.86425 20 11.78125 20 L 14 20 L 23 20 L 24.25 20 C 25.152 20 25.91825 19.40125 26.15625 18.53125 L 28.75 9 L 26.65625 9 L 24.25 18 L 11.78125 18 L 9.15625 7.5 C 8.93425 6.61 8.13675 6 7.21875 6 L 5 6 z M 23 20 C 21.35499 20 20 21.35499 20 23 C 20 24.64501 21.35499 26 23 26 C 24.64501 26 26 24.64501 26 23 C 26 21.35499 24.64501 20 23 20 z M 14 20 C 12.35499 20 11 21.35499 11 23 C 11 24.64501 12.35499 26 14 26 C 15.64501 26 17 24.64501 17 23 C 17 21.35499 15.64501 20 14 20 z M 18 6 L 14 10 L 17 10 L 17 15 L 19 15 L 19 10 L 22 10 L 18 6 z M 14 22 C 14.564128 22 15 22.435872 15 23 C 15 23.564128 14.564128 24 14 24 C 13.435872 24 13 23.564128 13 23 C 13 22.435872 13.435872 22 14 22 z M 23 22 C 23.564128 22 24 22.435872 24 23 C 24 23.564128 23.564128 24 23 24 C 22.435872 24 22 23.564128 22 23 C 22 22.435872 22.435872 22 23 22 z" overflow="visible" font-family="Sans"/>
</svg>
